<svg xmlns="http://www.w3.org/2000/svg" viewBox="0 0 140 140">
  <circle cx="70" cy="70" r="70" fill="#0E2344"></circle>
  <g fill="#FFFFFF">
    <rect x="64" y="4" width="12" height="14"></rect>
    <rect x="64" y="4" width="12" height="14" transform="rotate(30 70 70)"></rect>
    <rect x="64" y="4" width="12" height="14" transform="rotate(60 70 70)"></rect>
    <rect x="64" y="4" width="12" height="14" transform="rotate(90 70 70)"></rect>
    <rect x="64" y="4" width="12" height="14" transform="rotate(120 70 70)"></rect>
    <rect x="64" y="4" width="12" height="14" transform="rotate(150 70 70)"></rect>
    <rect x="64" y="4" width="12" height="14" transform="rotate(180 70 70)"></rect>
    <rect x="64" y="4" width="12" height="14" transform="rotate(210 70 70)"></rect>
    <rect x="64" y="4" width="12" height="14" transform="rotate(240 70 70)"></rect>
    <rect x="64" y="4" width="12" height="14" transform="rotate(270 70 70)"></rect>
    <rect x="64" y="4" width="12" height="14" transform="rotate(300 70 70)"></rect>
    <rect x="64" y="4" width="12" height="14" transform="rotate(330 70 70)"></rect>
  </g>
  <circle cx="70" cy="70" r="47" fill="none" stroke="#FFFFFF" stroke-width="8"></circle>
  <g fill="#00A3A3" transform="translate(52,44) scale(0.75)">
    <rect x="0" y="0" width="12" height="70"></rect>
    <rect x="36" y="0" width="12" height="70"></rect>
    <polygon points="14,2 24,2 34,68 24,68"></polygon>
  </g>
</svg>